<svg width="20" height="20" viewBox="0 0 20 20" fill="none" xmlns="http://www.w3.org/2000/svg">
<path d="M6.66667 4.79163C6.325 4.79163 6.04167 4.50829 6.04167 4.16663V1.66663C6.04167 1.32496 6.325 1.04163 6.66667 1.04163C7.00833 1.04163 7.29167 1.32496 7.29167 1.66663V4.16663C7.29167 4.50829 7.00833 4.79163 6.66667 4.79163Z" fill="#7E92A2"/>
<path d="M13.3333 4.79163C12.9917 4.79163 12.7083 4.50829 12.7083 4.16663V1.66663C12.7083 1.32496 12.9917 1.04163 13.3333 1.04163C13.675 1.04163 13.9583 1.32496 13.9583 1.66663V4.16663C13.9583 4.50829 13.675 4.79163 13.3333 4.79163Z" fill="#7E92A2"/>
<path d="M7.08333 12.0833C6.975 12.0833 6.86667 12.0583 6.76667 12.0166C6.65833 11.975 6.575 11.9166 6.49167 11.8416C6.34167 11.6833 6.25 11.475 6.25 11.25C6.25 11.1416 6.275 11.0333 6.31667 10.9333C6.35833 10.8333 6.41667 10.7416 6.49167 10.6583C6.575 10.5833 6.65833 10.525 6.76667 10.4833C7.06667 10.3583 7.44167 10.425 7.675 10.6583C7.825 10.8166 7.91667 11.0333 7.91667 11.25C7.91667 11.3 7.90833 11.3583 7.9 11.4166C7.89167 11.4666 7.875 11.5166 7.85 11.5666C7.83333 11.6166 7.80833 11.6666 7.775 11.7166C7.75 11.7583 7.70833 11.8 7.675 11.8416C7.51667 11.9916 7.3 12.0833 7.08333 12.0833Z" fill="#7E92A2"/>
<path d="M10 12.0833C9.89167 12.0833 9.78333 12.0583 9.68333 12.0166C9.575 11.975 9.49167 11.9166 9.40833 11.8416C9.25833 11.6833 9.16667 11.475 9.16667 11.25C9.16667 11.1416 9.19167 11.0333 9.23333 10.9333C9.275 10.8333 9.33333 10.7416 9.40833 10.6583C9.49167 10.5833 9.575 10.5249 9.68333 10.4833C9.98333 10.3499 10.3583 10.425 10.5917 10.6583C10.7417 10.8166 10.8333 11.0333 10.8333 11.25C10.8333 11.3 10.825 11.3583 10.8167 11.4166C10.8083 11.4666 10.7917 11.5166 10.7667 11.5666C10.75 11.6166 10.725 11.6666 10.6917 11.7166C10.6667 11.7583 10.625 11.7999 10.5917 11.8416C10.4333 11.9916 10.2167 12.0833 10 12.0833Z" fill="#7E92A2"/>
<path d="M12.9167 12.0833C12.8083 12.0833 12.7 12.0583 12.6 12.0166C12.4917 11.975 12.4083 11.9166 12.325 11.8416C12.2917 11.7999 12.2583 11.7583 12.225 11.7166C12.1917 11.6666 12.1667 11.6166 12.15 11.5666C12.125 11.5166 12.1083 11.4666 12.1 11.4166C12.0917 11.3583 12.0833 11.3 12.0833 11.25C12.0833 11.0333 12.175 10.8166 12.325 10.6583C12.4083 10.5833 12.4917 10.5249 12.6 10.4833C12.9083 10.3499 13.275 10.425 13.5083 10.6583C13.6583 10.8166 13.75 11.0333 13.75 11.25C13.75 11.3 13.7417 11.3583 13.7333 11.4166C13.725 11.4666 13.7083 11.5166 13.6833 11.5666C13.6667 11.6166 13.6417 11.6666 13.6083 11.7166C13.5833 11.7583 13.5417 11.7999 13.5083 11.8416C13.35 11.9916 13.1333 12.0833 12.9167 12.0833Z" fill="#7E92A2"/>
<path d="M7.08333 15C6.975 15 6.86667 14.975 6.76667 14.9333C6.66667 14.8916 6.575 14.8333 6.49167 14.7583C6.34167 14.6 6.25 14.3833 6.25 14.1666C6.25 14.0583 6.275 13.95 6.31667 13.85C6.35833 13.7416 6.41667 13.65 6.49167 13.575C6.8 13.2666 7.36667 13.2666 7.675 13.575C7.825 13.7333 7.91667 13.95 7.91667 14.1666C7.91667 14.3833 7.825 14.6 7.675 14.7583C7.51667 14.9083 7.3 15 7.08333 15Z" fill="#7E92A2"/>
<path d="M10 15C9.78333 15 9.56667 14.9083 9.40833 14.7583C9.25833 14.6 9.16667 14.3833 9.16667 14.1666C9.16667 14.0583 9.19167 13.95 9.23333 13.85C9.275 13.7416 9.33333 13.65 9.40833 13.575C9.71667 13.2666 10.2833 13.2666 10.5917 13.575C10.6667 13.65 10.725 13.7416 10.7667 13.85C10.8083 13.95 10.8333 14.0583 10.8333 14.1666C10.8333 14.3833 10.7417 14.6 10.5917 14.7583C10.4333 14.9083 10.2167 15 10 15Z" fill="#7E92A2"/>
<path d="M12.9167 15C12.7 15 12.4833 14.9083 12.325 14.7583C12.25 14.6833 12.1917 14.5917 12.15 14.4833C12.1083 14.3833 12.0833 14.275 12.0833 14.1667C12.0833 14.0583 12.1083 13.95 12.15 13.85C12.1917 13.7417 12.25 13.65 12.325 13.575C12.5167 13.3833 12.8083 13.2916 13.075 13.35C13.1333 13.3583 13.1833 13.375 13.2333 13.4C13.2833 13.4166 13.3333 13.4417 13.3833 13.475C13.425 13.5 13.4667 13.5417 13.5083 13.575C13.6583 13.7333 13.75 13.95 13.75 14.1667C13.75 14.3833 13.6583 14.6 13.5083 14.7583C13.35 14.9083 13.1333 15 12.9167 15Z" fill="#7E92A2"/>
<path d="M17.0833 8.19993H2.91667C2.575 8.19993 2.29167 7.9166 2.29167 7.57493C2.29167 7.23326 2.575 6.94993 2.91667 6.94993H17.0833C17.425 6.94993 17.7083 7.23326 17.7083 7.57493C17.7083 7.9166 17.425 8.19993 17.0833 8.19993Z" fill="#7E92A2"/>
<path d="M13.3333 18.9583H6.66667C3.625 18.9583 1.875 17.2083 1.875 14.1666V7.08329C1.875 4.04163 3.625 2.29163 6.66667 2.29163H13.3333C16.375 2.29163 18.125 4.04163 18.125 7.08329V14.1666C18.125 17.2083 16.375 18.9583 13.3333 18.9583ZM6.66667 3.54163C4.28333 3.54163 3.125 4.69996 3.125 7.08329V14.1666C3.125 16.55 4.28333 17.7083 6.66667 17.7083H13.3333C15.7167 17.7083 16.875 16.55 16.875 14.1666V7.08329C16.875 4.69996 15.7167 3.54163 13.3333 3.54163H6.66667Z" fill="#7E92A2"/>
</svg>
