<svg width="80" height="80" viewBox="0 0 80 80" fill="none" xmlns="http://www.w3.org/2000/svg">
<rect width="80" height="80" rx="40" fill="url(#paint0_linear_2_346)"/>
<path d="M52.1199 33.3067C50.9866 32.0533 49.0932 31.4267 46.3466 31.4267H46.0266V31.3733C46.0266 29.1333 46.0266 26.36 41.0132 26.36H38.9866C33.9732 26.36 33.9732 29.1467 33.9732 31.3733V31.44H33.6532C30.8932 31.44 29.0132 32.0667 27.8799 33.32C26.5599 34.7867 26.5999 36.76 26.7332 38.1067L26.7466 38.2L26.8498 39.2844C26.8688 39.4841 26.9764 39.6644 27.1443 39.7743C27.464 39.9835 27.9991 40.3284 28.3199 40.5067C28.5066 40.6267 28.7066 40.7333 28.9066 40.84C31.1866 42.0933 33.6932 42.9333 36.2399 43.3467C36.3599 44.6 36.9066 46.0667 39.8266 46.0667C42.7466 46.0667 43.3199 44.6133 43.4132 43.32C46.1332 42.88 48.7599 41.9333 51.1332 40.5467C51.2132 40.5067 51.2666 40.4667 51.3332 40.4267C51.8622 40.1277 52.411 39.7593 52.9112 39.3984C53.0619 39.2897 53.1582 39.1217 53.1787 38.937L53.1999 38.7467L53.2666 38.12C53.2799 38.04 53.2799 37.9733 53.2932 37.88C53.3999 36.5333 53.3732 34.6933 52.1199 33.3067ZM41.4532 42.44C41.4532 43.8533 41.4532 44.0667 39.8132 44.0667C38.1732 44.0667 38.1732 43.8133 38.1732 42.4533V40.7733H41.4532V42.44ZM35.8799 31.3733C35.8799 29.1067 35.8799 28.2667 38.9866 28.2667H41.0132C44.1199 28.2667 44.1199 29.12 44.1199 31.3733V31.44H35.8799V31.3733Z" fill="#FE8084"/>
<path d="M51.8312 42.3122C52.3026 42.0879 52.8457 42.4616 52.7985 42.9816L52.3199 48.2533C52.0399 50.92 50.9466 53.64 45.0799 53.64H34.9199C29.0532 53.64 27.9599 50.92 27.6799 48.2667L27.2256 43.2696C27.1789 42.7556 27.7095 42.3823 28.1797 42.595C29.6989 43.2824 32.5031 44.5019 34.2353 44.9555C34.4544 45.0129 34.6316 45.1697 34.7275 45.3749C35.5368 47.1057 37.292 48.0267 39.8266 48.0267C42.336 48.0267 44.1134 47.0702 44.9254 45.3352C45.0215 45.1299 45.1988 44.9731 45.418 44.9154C47.2574 44.4314 50.2423 43.0683 51.8312 42.3122Z" fill="#FE8084"/>
<defs>
<linearGradient id="paint0_linear_2_346" x1="40" y1="0" x2="40" y2="80" gradientUnits="userSpaceOnUse">
<stop stop-color="#FE8084" stop-opacity="0.5"/>
<stop offset="1" stop-color="white" stop-opacity="0"/>
</linearGradient>
</defs>
</svg>
