<svg width="80" height="80" viewBox="0 0 80 80" fill="none" xmlns="http://www.w3.org/2000/svg">
<rect width="80" height="80" rx="40" fill="url(#paint0_linear_2_340)"/>
<path d="M35.9999 26.6666C32.5066 26.6666 29.6666 29.5066 29.6666 33C29.6666 36.4266 32.3466 39.2 35.8399 39.32C35.9466 39.3066 36.0533 39.3066 36.1333 39.32C36.1599 39.32 36.1733 39.32 36.1999 39.32C36.2133 39.32 36.2133 39.32 36.2266 39.32C39.6399 39.2 42.3199 36.4266 42.3333 33C42.3333 29.5066 39.4933 26.6666 35.9999 26.6666Z" fill="#2DC8A8"/>
<path d="M42.7733 42.8666C39.0533 40.3866 32.9866 40.3866 29.2399 42.8666C27.5466 44 26.6133 45.5333 26.6133 47.1733C26.6133 48.8133 27.5466 50.3333 29.2266 51.4533C31.0933 52.7066 33.5466 53.3333 35.9999 53.3333C38.4533 53.3333 40.9066 52.7066 42.7733 51.4533C44.4533 50.32 45.3866 48.8 45.3866 47.1466C45.3733 45.5066 44.4533 43.9866 42.7733 42.8666Z" fill="#2DC8A8"/>
<path d="M50.6533 33.7866C50.8666 36.3733 49.0266 38.64 46.4799 38.9466C46.4666 38.9466 46.4666 38.9466 46.4533 38.9466H46.4133C46.3333 38.9466 46.2533 38.9466 46.1866 38.9733C44.8933 39.04 43.7066 38.6266 42.8133 37.8666C44.1866 36.64 44.9733 34.8 44.8133 32.8C44.7199 31.72 44.3466 30.7333 43.7866 29.8933C44.2933 29.64 44.8799 29.48 45.4799 29.4266C48.0933 29.2 50.4266 31.1466 50.6533 33.7866Z" fill="#2DC8A8"/>
<path d="M53.3199 46.12C53.2133 47.4133 52.3866 48.5333 51 49.2933C49.6666 50.0266 47.9866 50.3733 46.3199 50.3333C47.2799 49.4666 47.8399 48.3866 47.9466 47.24C48.0799 45.5866 47.2933 44 45.7199 42.7333C44.8266 42.0266 43.7866 41.4666 42.6533 41.0533C45.5999 40.2 49.3066 40.7733 51.5866 42.6133C52.8133 43.6 53.4399 44.84 53.3199 46.12Z" fill="#2DC8A8"/>
<defs>
<linearGradient id="paint0_linear_2_340" x1="40" y1="0" x2="40" y2="80" gradientUnits="userSpaceOnUse">
<stop stop-color="#2DC8A8" stop-opacity="0.5"/>
<stop offset="1" stop-color="white" stop-opacity="0"/>
</linearGradient>
</defs>
</svg>
