<svg width="748" height="229" viewBox="0 0 748 229" fill="none" xmlns="http://www.w3.org/2000/svg">
<mask id="mask0_71_1624" style="mask-type:alpha" maskUnits="userSpaceOnUse" x="0" y="0" width="748" height="189">
<rect width="748" height="189" fill="white"/>
</mask>
<g mask="url(#mask0_71_1624)">
<path d="M-1.70213 142C-12.8511 146.8 -21.2128 148.667 -24 149V190H762V40C750.541 50.6667 723.165 70.8 705.326 66C683.028 60 657.943 61 641.22 66C624.496 71 614.277 78 595.695 79C577.114 80 582.688 75 553.887 72C525.085 69 513.007 98 499.071 106C485.135 114 449.83 112 436.823 106C423.816 100 412.667 98 402.447 98C392.227 98 392.227 105 377.362 106C362.496 107 347.631 97 327.191 98C306.752 99 278.879 118 257.511 119C236.142 120 249.149 114 218.489 112C187.83 110 163.674 136 144.163 142C124.652 148 95.8511 135 80.0567 131C64.2624 127 49.3972 142 37.3191 142C25.2411 142 12.234 136 -1.70213 142Z" fill="#EEF2FF" fill-opacity="0.5" stroke="#4F46E5" stroke-width="2"/>
<path d="M-75.4538 168.5H-108V196H756V96C754.983 99.3333 752.847 106.5 752.44 108.5C751.932 111 742.778 117.5 738.201 114.5C733.625 111.5 723.962 111 718.877 112.5C713.792 114 714.809 111 705.147 108.5C695.484 106 692.433 114 687.348 115.5C682.263 117 674.634 114 671.075 111L670.922 110.871C667.383 107.887 662.757 103.986 650.225 103C637.511 102 634.969 117.5 629.883 123C624.798 128.5 613.102 125.5 610.051 124.5C606.999 123.5 604.457 120 594.795 123C585.132 126 575.979 136.5 564.283 137C552.586 137.5 542.416 129.5 534.279 129.5C526.142 129.5 528.685 131 517.497 133.5C506.31 136 486.985 129.5 480.374 127C473.763 124.5 465.118 127 460.542 129.5C455.965 132 439.692 132.5 435.115 131C430.538 129.5 417.316 126 414.265 129.5C411.214 133 397.483 127 393.415 127C389.347 127 391.381 123.5 380.702 121.5C370.022 119.5 362.903 129.5 359.852 131C356.8 132.5 351.207 130 346.121 127C341.036 124 320.186 121 307.981 123.5C295.776 126 294.759 133.5 286.623 134.5C278.486 135.5 274.926 142.5 270.858 142.5C266.79 142.5 264.247 142.5 260.687 140.5C257.128 138.5 248.483 140.5 244.923 142.5C241.363 144.5 235.261 145.5 228.141 146C221.022 146.5 216.953 142 211.36 140.5C205.766 139 198.138 138 183.899 138.5C169.66 139 170.168 148 155.421 151.5C140.673 155 129.994 150.5 119.823 149C109.653 147.5 101.008 154.5 96.4308 157C91.854 159.5 81.6833 157 71.5126 154.5C61.342 152 57.2737 157 55.7481 157C54.2225 157 47.103 163.5 38.9664 157C30.8299 150.5 27.2702 152.5 24.2189 152.5C21.1677 152.5 19.1336 156 14.5568 154.5C9.97999 153 9.97999 148.5 2.35197 149C-5.27605 149.5 -10.8699 160 -13.4126 161.5C-15.9553 163 -21.5491 165 -25.6174 165.5C-29.6857 166 -29.6857 163.5 -41.8905 162.5C-54.0954 161.5 -61.2148 168.5 -75.4538 168.5Z" fill="white" fill-opacity="0.04" stroke="#818CF8" stroke-width="2"/>
</g>
<path d="M2.079 224H3.353V219.788H7.76V218.618H3.353V215.485H8.215V214.315H2.079V224ZM12.5106 224.156C13.2299 224.156 13.8539 223.987 14.3826 223.649C14.9113 223.311 15.2839 222.899 15.5006 222.414L14.4866 221.894C14.2873 222.232 14.0273 222.509 13.7066 222.726C13.3859 222.943 12.9916 223.051 12.5236 223.051C12.1336 223.051 11.7696 222.964 11.4316 222.791C11.1023 222.609 10.8293 222.353 10.6126 222.024C10.4046 221.695 10.2919 221.305 10.2746 220.854H15.6306C15.6739 220.62 15.6956 220.403 15.6956 220.204C15.6956 219.623 15.5656 219.077 15.3056 218.566C15.0456 218.055 14.6686 217.639 14.1746 217.318C13.6893 216.997 13.0999 216.837 12.4066 216.837C11.7566 216.837 11.1759 216.993 10.6646 217.305C10.1533 217.617 9.74592 218.05 9.44259 218.605C9.14792 219.151 9.00059 219.775 9.00059 220.477C9.00059 221.179 9.15225 221.807 9.45559 222.362C9.75892 222.917 10.1749 223.354 10.7036 223.675C11.2323 223.996 11.8346 224.156 12.5106 224.156ZM12.4066 217.916C12.7619 217.916 13.0869 217.998 13.3816 218.163C13.6763 218.319 13.9146 218.54 14.0966 218.826C14.2786 219.112 14.3739 219.441 14.3826 219.814H10.3006C10.3873 219.225 10.6299 218.761 11.0286 218.423C11.4273 218.085 11.8866 217.916 12.4066 217.916ZM20.8989 224.156C21.5663 224.156 22.1599 223.996 22.6799 223.675C23.2086 223.354 23.6246 222.921 23.9279 222.375C24.2313 221.82 24.3829 221.196 24.3829 220.503C24.3829 219.801 24.2313 219.177 23.9279 218.631C23.6246 218.076 23.2129 217.639 22.6929 217.318C22.1729 216.997 21.5793 216.837 20.9119 216.837C20.3919 216.837 19.9239 216.937 19.5079 217.136C19.0919 217.327 18.7496 217.595 18.4809 217.942V214.159H17.2719V224H18.4549V222.986C18.7236 223.359 19.0703 223.649 19.4949 223.857C19.9283 224.056 20.3963 224.156 20.8989 224.156ZM20.8079 222.986C20.3746 222.986 19.9803 222.878 19.6249 222.661C19.2696 222.444 18.9879 222.15 18.7799 221.777C18.5806 221.396 18.4809 220.971 18.4809 220.503C18.4809 220.026 18.5806 219.602 18.7799 219.229C18.9879 218.856 19.2696 218.562 19.6249 218.345C19.9803 218.12 20.3746 218.007 20.8079 218.007C21.2499 218.007 21.6399 218.115 21.9779 218.332C22.3246 218.549 22.5976 218.848 22.7969 219.229C22.9963 219.602 23.0959 220.026 23.0959 220.503C23.0959 220.971 22.9963 221.396 22.7969 221.777C22.5976 222.15 22.3246 222.444 21.9779 222.661C21.6399 222.878 21.2499 222.986 20.8079 222.986Z" fill="#52525B"/>
<path d="M68.5072 224H69.7812V216.642L72.9402 221.14H73.0442L76.1902 216.707V224H77.4772V214.315H76.3072L73.0052 219.047L69.6772 214.315H68.5072V224ZM81.5393 224.156C82.0506 224.156 82.51 224.061 82.9173 223.87C83.3246 223.671 83.654 223.411 83.9053 223.09V224H85.0883V219.242C85.0883 218.765 84.9713 218.349 84.7373 217.994C84.512 217.63 84.1957 217.348 83.7883 217.149C83.381 216.941 82.9086 216.837 82.3713 216.837C81.9553 216.837 81.5566 216.911 81.1753 217.058C80.794 217.205 80.4603 217.409 80.1743 217.669C79.8883 217.92 79.6803 218.206 79.5503 218.527L80.6033 219.073C80.7506 218.744 80.976 218.475 81.2793 218.267C81.5826 218.059 81.938 217.955 82.3453 217.955C82.8047 217.955 83.173 218.076 83.4503 218.319C83.7363 218.553 83.8793 218.861 83.8793 219.242V219.567L81.4873 219.957C80.6986 220.087 80.118 220.351 79.7453 220.75C79.3813 221.14 79.1993 221.612 79.1993 222.167C79.1993 222.756 79.416 223.237 79.8493 223.61C80.2913 223.974 80.8546 224.156 81.5393 224.156ZM80.4733 222.128C80.4733 221.825 80.573 221.569 80.7723 221.361C80.9803 221.153 81.3096 221.01 81.7603 220.932L83.8793 220.581V221.023C83.8793 221.413 83.7883 221.768 83.6063 222.089C83.4243 222.41 83.1687 222.665 82.8393 222.856C82.51 223.038 82.1243 223.129 81.6823 223.129C81.3356 223.129 81.0453 223.034 80.8113 222.843C80.586 222.652 80.4733 222.414 80.4733 222.128ZM86.9629 224H88.1719V219.827C88.1719 219.264 88.3235 218.83 88.6269 218.527C88.9302 218.215 89.3289 218.059 89.8229 218.059H90.4339V216.915H90.0049C89.5715 216.915 89.1989 216.993 88.8869 217.149C88.5749 217.296 88.3279 217.522 88.1459 217.825V216.993H86.9629V224Z" fill="#52525B"/>
<path d="M133.155 224H134.52L135.313 221.725H139.447L140.24 224H141.605L138.134 214.315H136.626L133.155 224ZM135.716 220.555L137.38 215.758L139.044 220.555H135.716ZM142.683 226.6H143.892V223.025C144.16 223.389 144.503 223.671 144.919 223.87C145.343 224.061 145.807 224.156 146.31 224.156C146.977 224.156 147.571 223.996 148.091 223.675C148.619 223.354 149.035 222.921 149.339 222.375C149.642 221.82 149.794 221.196 149.794 220.503C149.794 219.801 149.642 219.177 149.339 218.631C149.035 218.076 148.624 217.639 148.104 217.318C147.584 216.997 146.99 216.837 146.323 216.837C145.794 216.837 145.317 216.941 144.893 217.149C144.477 217.348 144.134 217.626 143.866 217.981V216.993H142.683V226.6ZM146.219 222.986C145.785 222.986 145.391 222.878 145.036 222.661C144.68 222.444 144.399 222.15 144.191 221.777C143.991 221.396 143.892 220.971 143.892 220.503C143.892 220.026 143.991 219.602 144.191 219.229C144.399 218.856 144.68 218.562 145.036 218.345C145.391 218.12 145.785 218.007 146.219 218.007C146.661 218.007 147.051 218.115 147.389 218.332C147.735 218.549 148.008 218.848 148.208 219.229C148.407 219.602 148.507 220.026 148.507 220.503C148.507 220.971 148.407 221.396 148.208 221.777C148.008 222.15 147.735 222.444 147.389 222.661C147.051 222.878 146.661 222.986 146.219 222.986ZM151.379 224H152.588V219.827C152.588 219.264 152.74 218.83 153.043 218.527C153.346 218.215 153.745 218.059 154.239 218.059H154.85V216.915H154.421C153.988 216.915 153.615 216.993 153.303 217.149C152.991 217.296 152.744 217.522 152.562 217.825V216.993H151.379V224Z" fill="#52525B"/>
<path d="M198.187 224H199.461V216.642L202.62 221.14H202.724L205.87 216.707V224H207.157V214.315H205.987L202.685 219.047L199.357 214.315H198.187V224ZM211.219 224.156C211.73 224.156 212.19 224.061 212.597 223.87C213.004 223.671 213.334 223.411 213.585 223.09V224H214.768V219.242C214.768 218.765 214.651 218.349 214.417 217.994C214.192 217.63 213.875 217.348 213.468 217.149C213.061 216.941 212.588 216.837 212.051 216.837C211.635 216.837 211.236 216.911 210.855 217.058C210.474 217.205 210.14 217.409 209.854 217.669C209.568 217.92 209.36 218.206 209.23 218.527L210.283 219.073C210.43 218.744 210.656 218.475 210.959 218.267C211.262 218.059 211.618 217.955 212.025 217.955C212.484 217.955 212.853 218.076 213.13 218.319C213.416 218.553 213.559 218.861 213.559 219.242V219.567L211.167 219.957C210.378 220.087 209.798 220.351 209.425 220.75C209.061 221.14 208.879 221.612 208.879 222.167C208.879 222.756 209.096 223.237 209.529 223.61C209.971 223.974 210.534 224.156 211.219 224.156ZM210.153 222.128C210.153 221.825 210.253 221.569 210.452 221.361C210.66 221.153 210.989 221.01 211.44 220.932L213.559 220.581V221.023C213.559 221.413 213.468 221.768 213.286 222.089C213.104 222.41 212.848 222.665 212.519 222.856C212.19 223.038 211.804 223.129 211.362 223.129C211.015 223.129 210.725 223.034 210.491 222.843C210.266 222.652 210.153 222.414 210.153 222.128ZM217.02 226.86C217.479 226.86 217.869 226.769 218.19 226.587C218.519 226.405 218.796 226.158 219.022 225.846C219.256 225.543 219.446 225.205 219.594 224.832L222.753 216.993H221.414L219.295 222.466L217.163 216.993H215.85L218.632 224.013L218.424 224.52C218.233 224.953 218.029 225.261 217.813 225.443C217.605 225.625 217.297 225.716 216.89 225.716C216.751 225.716 216.608 225.703 216.461 225.677C216.322 225.66 216.205 225.642 216.11 225.625V226.704C216.248 226.765 216.396 226.804 216.552 226.821C216.708 226.847 216.864 226.86 217.02 226.86Z" fill="#52525B"/>
<path d="M266.102 224H266.635C267.484 224 268.16 223.749 268.663 223.246C269.165 222.743 269.417 222.067 269.417 221.218V214.315H268.13V221.244C268.13 221.712 267.995 222.085 267.727 222.362C267.458 222.631 267.094 222.765 266.635 222.765H266.102V224ZM273.885 224.156C274.319 224.156 274.709 224.069 275.055 223.896C275.402 223.714 275.679 223.463 275.887 223.142V224H277.07V216.993H275.848V221.14C275.848 221.712 275.688 222.163 275.367 222.492C275.055 222.821 274.652 222.986 274.158 222.986C273.656 222.986 273.248 222.83 272.936 222.518C272.624 222.197 272.468 221.773 272.468 221.244V216.993H271.259V221.374C271.259 221.92 271.372 222.405 271.597 222.83C271.823 223.246 272.13 223.571 272.52 223.805C272.919 224.039 273.374 224.156 273.885 224.156ZM278.943 224H280.152V219.853C280.152 219.281 280.313 218.83 280.633 218.501C280.954 218.172 281.361 218.007 281.855 218.007C282.349 218.007 282.752 218.172 283.064 218.501C283.376 218.822 283.532 219.272 283.532 219.853V224H284.754V219.463C284.754 218.96 284.637 218.514 284.403 218.124C284.178 217.725 283.866 217.413 283.467 217.188C283.077 216.954 282.631 216.837 282.128 216.837C281.695 216.837 281.305 216.928 280.958 217.11C280.612 217.283 280.334 217.53 280.126 217.851V216.993H278.943V224Z" fill="#52525B"/>
<path d="M326.83 224H327.363C328.212 224 328.888 223.749 329.391 223.246C329.893 222.743 330.145 222.067 330.145 221.218V214.315H328.858V221.244C328.858 221.712 328.723 222.085 328.455 222.362C328.186 222.631 327.822 222.765 327.363 222.765H326.83V224ZM334.613 224.156C335.047 224.156 335.437 224.069 335.783 223.896C336.13 223.714 336.407 223.463 336.615 223.142V224H337.798V216.993H336.576V221.14C336.576 221.712 336.416 222.163 336.095 222.492C335.783 222.821 335.38 222.986 334.886 222.986C334.384 222.986 333.976 222.83 333.664 222.518C333.352 222.197 333.196 221.773 333.196 221.244V216.993H331.987V221.374C331.987 221.92 332.1 222.405 332.325 222.83C332.551 223.246 332.858 223.571 333.248 223.805C333.647 224.039 334.102 224.156 334.613 224.156ZM339.671 224H340.88V214.159H339.671V224Z" fill="#52525B"/>
<path d="M384.284 224H385.649L386.442 221.725H390.576L391.369 224H392.734L389.263 214.315H387.755L384.284 224ZM386.845 220.555L388.509 215.758L390.173 220.555H386.845ZM396.168 224.156C396.601 224.156 396.991 224.069 397.338 223.896C397.684 223.714 397.962 223.463 398.17 223.142V224H399.353V216.993H398.131V221.14C398.131 221.712 397.97 222.163 397.65 222.492C397.338 222.821 396.935 222.986 396.441 222.986C395.938 222.986 395.531 222.83 395.219 222.518C394.907 222.197 394.751 221.773 394.751 221.244V216.993H393.542V221.374C393.542 221.92 393.654 222.405 393.88 222.83C394.105 223.246 394.413 223.571 394.803 223.805C395.201 224.039 395.656 224.156 396.168 224.156ZM404.567 226.86C405.217 226.86 405.793 226.721 406.296 226.444C406.807 226.175 407.206 225.803 407.492 225.326C407.778 224.849 407.921 224.308 407.921 223.701V216.993H406.738V217.968C406.46 217.613 406.118 217.335 405.711 217.136C405.303 216.937 404.853 216.837 404.359 216.837C403.7 216.837 403.111 216.993 402.591 217.305C402.079 217.608 401.676 218.024 401.382 218.553C401.087 219.082 400.94 219.675 400.94 220.334C400.94 220.993 401.087 221.586 401.382 222.115C401.685 222.644 402.092 223.064 402.604 223.376C403.124 223.679 403.713 223.831 404.372 223.831C404.848 223.831 405.29 223.736 405.698 223.545C406.105 223.354 406.439 223.081 406.699 222.726V223.701C406.699 224.126 406.599 224.485 406.4 224.78C406.209 225.083 405.953 225.309 405.633 225.456C405.312 225.612 404.952 225.69 404.554 225.69C404.034 225.69 403.6 225.573 403.254 225.339C402.916 225.114 402.686 224.836 402.565 224.507L401.434 225.027C401.668 225.573 402.062 226.015 402.617 226.353C403.171 226.691 403.821 226.86 404.567 226.86ZM404.476 222.661C404.042 222.661 403.652 222.557 403.306 222.349C402.968 222.141 402.699 221.864 402.5 221.517C402.309 221.162 402.214 220.767 402.214 220.334C402.214 219.901 402.313 219.511 402.513 219.164C402.712 218.809 402.981 218.527 403.319 218.319C403.665 218.111 404.051 218.007 404.476 218.007C404.892 218.007 405.269 218.111 405.607 218.319C405.945 218.527 406.209 218.809 406.4 219.164C406.599 219.511 406.699 219.901 406.699 220.334C406.699 220.759 406.599 221.149 406.4 221.504C406.209 221.859 405.945 222.141 405.607 222.349C405.269 222.557 404.892 222.661 404.476 222.661Z" fill="#52525B"/>
<path d="M455.864 224.156C456.497 224.156 457.051 224.043 457.528 223.818C458.013 223.584 458.39 223.263 458.659 222.856C458.936 222.449 459.075 221.981 459.075 221.452C459.075 220.187 458.304 219.316 456.761 218.839L455.136 218.358C454.677 218.211 454.334 217.998 454.109 217.721C453.884 217.435 453.771 217.119 453.771 216.772C453.771 216.321 453.931 215.966 454.252 215.706C454.573 215.437 454.993 215.303 455.513 215.303C456.076 215.303 456.566 215.446 456.982 215.732C457.407 216.018 457.719 216.43 457.918 216.967L459.01 216.512C458.863 216.07 458.62 215.671 458.282 215.316C457.953 214.961 457.55 214.679 457.073 214.471C456.605 214.263 456.081 214.159 455.5 214.159C454.919 214.159 454.399 214.276 453.94 214.51C453.489 214.735 453.134 215.052 452.874 215.459C452.623 215.858 452.497 216.321 452.497 216.85C452.497 217.457 452.683 217.994 453.056 218.462C453.429 218.93 453.966 219.272 454.668 219.489L456.449 220.035C456.882 220.165 457.216 220.347 457.45 220.581C457.684 220.815 457.801 221.136 457.801 221.543C457.801 221.994 457.623 222.353 457.268 222.622C456.921 222.882 456.462 223.012 455.89 223.012C455.266 223.012 454.72 222.847 454.252 222.518C453.784 222.18 453.437 221.699 453.212 221.075L452.107 221.53C452.263 222.024 452.519 222.47 452.874 222.869C453.229 223.259 453.663 223.571 454.174 223.805C454.685 224.039 455.249 224.156 455.864 224.156ZM464.021 224.156C464.741 224.156 465.365 223.987 465.893 223.649C466.422 223.311 466.795 222.899 467.011 222.414L465.997 221.894C465.798 222.232 465.538 222.509 465.217 222.726C464.897 222.943 464.502 223.051 464.034 223.051C463.644 223.051 463.28 222.964 462.942 222.791C462.613 222.609 462.34 222.353 462.123 222.024C461.915 221.695 461.803 221.305 461.785 220.854H467.141C467.185 220.62 467.206 220.403 467.206 220.204C467.206 219.623 467.076 219.077 466.816 218.566C466.556 218.055 466.179 217.639 465.685 217.318C465.2 216.997 464.611 216.837 463.917 216.837C463.267 216.837 462.687 216.993 462.175 217.305C461.664 217.617 461.257 218.05 460.953 218.605C460.659 219.151 460.511 219.775 460.511 220.477C460.511 221.179 460.663 221.807 460.966 222.362C461.27 222.917 461.686 223.354 462.214 223.675C462.743 223.996 463.345 224.156 464.021 224.156ZM463.917 217.916C464.273 217.916 464.598 217.998 464.892 218.163C465.187 218.319 465.425 218.54 465.607 218.826C465.789 219.112 465.885 219.441 465.893 219.814H461.811C461.898 219.225 462.141 218.761 462.539 218.423C462.938 218.085 463.397 217.916 463.917 217.916ZM468.783 226.6H469.992V223.025C470.26 223.389 470.603 223.671 471.019 223.87C471.443 224.061 471.907 224.156 472.41 224.156C473.077 224.156 473.671 223.996 474.191 223.675C474.719 223.354 475.135 222.921 475.439 222.375C475.742 221.82 475.894 221.196 475.894 220.503C475.894 219.801 475.742 219.177 475.439 218.631C475.135 218.076 474.724 217.639 474.204 217.318C473.684 216.997 473.09 216.837 472.423 216.837C471.894 216.837 471.417 216.941 470.993 217.149C470.577 217.348 470.234 217.626 469.966 217.981V216.993H468.783V226.6ZM472.319 222.986C471.885 222.986 471.491 222.878 471.136 222.661C470.78 222.444 470.499 222.15 470.291 221.777C470.091 221.396 469.992 220.971 469.992 220.503C469.992 220.026 470.091 219.602 470.291 219.229C470.499 218.856 470.78 218.562 471.136 218.345C471.491 218.12 471.885 218.007 472.319 218.007C472.761 218.007 473.151 218.115 473.489 218.332C473.835 218.549 474.108 218.848 474.308 219.229C474.507 219.602 474.607 220.026 474.607 220.503C474.607 220.971 474.507 221.396 474.308 221.777C474.108 222.15 473.835 222.444 473.489 222.661C473.151 222.878 472.761 222.986 472.319 222.986Z" fill="#52525B"/>
<path d="M525.007 224.156C525.7 224.156 526.341 224.035 526.931 223.792C527.529 223.541 528.053 223.19 528.504 222.739C528.954 222.288 529.305 221.76 529.557 221.153C529.808 220.546 529.934 219.879 529.934 219.151C529.934 218.432 529.808 217.769 529.557 217.162C529.305 216.547 528.954 216.018 528.504 215.576C528.053 215.125 527.529 214.779 526.931 214.536C526.341 214.285 525.7 214.159 525.007 214.159C524.322 214.159 523.681 214.285 523.083 214.536C522.485 214.779 521.96 215.125 521.51 215.576C521.068 216.018 520.721 216.542 520.47 217.149C520.218 217.756 520.093 218.423 520.093 219.151C520.093 219.879 520.218 220.546 520.47 221.153C520.721 221.76 521.072 222.288 521.523 222.739C521.973 223.19 522.493 223.541 523.083 223.792C523.681 224.035 524.322 224.156 525.007 224.156ZM525.007 222.973C524.305 222.973 523.676 222.804 523.122 222.466C522.576 222.119 522.147 221.66 521.835 221.088C521.523 220.507 521.367 219.862 521.367 219.151C521.367 218.44 521.523 217.799 521.835 217.227C522.147 216.655 522.576 216.2 523.122 215.862C523.668 215.515 524.296 215.342 525.007 215.342C525.717 215.342 526.346 215.515 526.892 215.862C527.438 216.2 527.867 216.655 528.179 217.227C528.491 217.799 528.647 218.44 528.647 219.151C528.647 219.862 528.491 220.507 528.179 221.088C527.867 221.66 527.438 222.119 526.892 222.466C526.346 222.804 525.717 222.973 525.007 222.973ZM534.899 224.156C535.358 224.156 535.787 224.074 536.186 223.909C536.593 223.744 536.944 223.519 537.239 223.233C537.534 222.947 537.755 222.626 537.902 222.271L536.823 221.725C536.658 222.106 536.407 222.414 536.069 222.648C535.74 222.873 535.35 222.986 534.899 222.986C534.474 222.986 534.089 222.878 533.742 222.661C533.404 222.444 533.135 222.15 532.936 221.777C532.737 221.396 532.637 220.971 532.637 220.503C532.637 220.018 532.737 219.589 532.936 219.216C533.135 218.843 533.404 218.549 533.742 218.332C534.089 218.115 534.474 218.007 534.899 218.007C535.341 218.007 535.731 218.124 536.069 218.358C536.407 218.583 536.658 218.878 536.823 219.242L537.902 218.722C537.755 218.358 537.529 218.033 537.226 217.747C536.931 217.461 536.585 217.24 536.186 217.084C535.787 216.919 535.358 216.837 534.899 216.837C534.214 216.837 533.603 216.997 533.066 217.318C532.537 217.63 532.121 218.063 531.818 218.618C531.515 219.164 531.363 219.788 531.363 220.49C531.363 221.183 531.515 221.807 531.818 222.362C532.121 222.917 532.537 223.354 533.066 223.675C533.603 223.996 534.214 224.156 534.899 224.156ZM542.329 224.078C542.424 224.078 542.541 224.074 542.68 224.065C542.819 224.056 542.944 224.039 543.057 224.013V222.934C542.979 222.943 542.897 222.951 542.81 222.96C542.723 222.969 542.645 222.973 542.576 222.973C542.151 222.973 541.848 222.869 541.666 222.661C541.493 222.444 541.406 222.158 541.406 221.803V218.15H542.979V216.993H541.406V215.381H540.197V215.953C540.197 216.274 540.106 216.529 539.924 216.72C539.742 216.902 539.495 216.993 539.183 216.993H538.923V218.15H540.197V221.842C540.197 222.553 540.379 223.103 540.743 223.493C541.116 223.883 541.644 224.078 542.329 224.078Z" fill="#52525B"/>
<path d="M587.125 224H588.399V216.746L593.495 224H594.561V214.315H593.274V221.465L588.191 214.315H587.125V224ZM599.908 224.156C600.566 224.156 601.169 224 601.715 223.688C602.261 223.376 602.694 222.943 603.015 222.388C603.344 221.833 603.509 221.201 603.509 220.49C603.509 219.788 603.348 219.164 603.028 218.618C602.716 218.063 602.287 217.63 601.741 217.318C601.195 216.997 600.584 216.837 599.908 216.837C599.223 216.837 598.608 216.997 598.062 217.318C597.516 217.63 597.082 218.063 596.762 218.618C596.45 219.164 596.294 219.788 596.294 220.49C596.294 221.192 596.454 221.82 596.775 222.375C597.095 222.93 597.529 223.367 598.075 223.688C598.621 224 599.232 224.156 599.908 224.156ZM599.908 222.986C599.466 222.986 599.067 222.878 598.712 222.661C598.365 222.444 598.088 222.15 597.88 221.777C597.672 221.396 597.568 220.967 597.568 220.49C597.568 220.013 597.672 219.589 597.88 219.216C598.088 218.843 598.365 218.549 598.712 218.332C599.067 218.115 599.466 218.007 599.908 218.007C600.341 218.007 600.731 218.115 601.078 218.332C601.433 218.549 601.71 218.843 601.91 219.216C602.118 219.589 602.222 220.013 602.222 220.49C602.222 220.967 602.118 221.396 601.91 221.777C601.71 222.15 601.433 222.444 601.078 222.661C600.731 222.878 600.341 222.986 599.908 222.986ZM606.908 224H608.052L610.808 216.993H609.456L607.48 222.297L605.517 216.993H604.165L606.908 224Z" fill="#52525B"/>
<path d="M654.352 224H657.524C658.503 224 659.357 223.796 660.085 223.389C660.813 222.982 661.376 222.414 661.775 221.686C662.174 220.958 662.373 220.113 662.373 219.151C662.373 218.18 662.174 217.335 661.775 216.616C661.376 215.888 660.813 215.325 660.085 214.926C659.357 214.519 658.503 214.315 657.524 214.315H654.352V224ZM655.626 222.83V215.485H657.537C658.248 215.485 658.863 215.637 659.383 215.94C659.912 216.235 660.319 216.655 660.605 217.201C660.9 217.747 661.047 218.397 661.047 219.151C661.047 219.896 660.904 220.546 660.618 221.101C660.332 221.656 659.925 222.085 659.396 222.388C658.876 222.683 658.256 222.83 657.537 222.83H655.626ZM667.069 224.156C667.788 224.156 668.412 223.987 668.941 223.649C669.469 223.311 669.842 222.899 670.059 222.414L669.045 221.894C668.845 222.232 668.585 222.509 668.265 222.726C667.944 222.943 667.55 223.051 667.082 223.051C666.692 223.051 666.328 222.964 665.99 222.791C665.66 222.609 665.387 222.353 665.171 222.024C664.963 221.695 664.85 221.305 664.833 220.854H670.189C670.232 220.62 670.254 220.403 670.254 220.204C670.254 219.623 670.124 219.077 669.864 218.566C669.604 218.055 669.227 217.639 668.733 217.318C668.247 216.997 667.658 216.837 666.965 216.837C666.315 216.837 665.734 216.993 665.223 217.305C664.711 217.617 664.304 218.05 664.001 218.605C663.706 219.151 663.559 219.775 663.559 220.477C663.559 221.179 663.71 221.807 664.014 222.362C664.317 222.917 664.733 223.354 665.262 223.675C665.79 223.996 666.393 224.156 667.069 224.156ZM666.965 217.916C667.32 217.916 667.645 217.998 667.94 218.163C668.234 218.319 668.473 218.54 668.655 218.826C668.837 219.112 668.932 219.441 668.941 219.814H664.859C664.945 219.225 665.188 218.761 665.587 218.423C665.985 218.085 666.445 217.916 666.965 217.916ZM675.08 224.156C675.539 224.156 675.968 224.074 676.367 223.909C676.774 223.744 677.125 223.519 677.42 223.233C677.715 222.947 677.936 222.626 678.083 222.271L677.004 221.725C676.839 222.106 676.588 222.414 676.25 222.648C675.921 222.873 675.531 222.986 675.08 222.986C674.655 222.986 674.27 222.878 673.923 222.661C673.585 222.444 673.316 222.15 673.117 221.777C672.918 221.396 672.818 220.971 672.818 220.503C672.818 220.018 672.918 219.589 673.117 219.216C673.316 218.843 673.585 218.549 673.923 218.332C674.27 218.115 674.655 218.007 675.08 218.007C675.522 218.007 675.912 218.124 676.25 218.358C676.588 218.583 676.839 218.878 677.004 219.242L678.083 218.722C677.936 218.358 677.71 218.033 677.407 217.747C677.112 217.461 676.766 217.24 676.367 217.084C675.968 216.919 675.539 216.837 675.08 216.837C674.395 216.837 673.784 216.997 673.247 217.318C672.718 217.63 672.302 218.063 671.999 218.618C671.696 219.164 671.544 219.788 671.544 220.49C671.544 221.183 671.696 221.807 671.999 222.362C672.302 222.917 672.718 223.354 673.247 223.675C673.784 223.996 674.395 224.156 675.08 224.156Z" fill="#52525B"/>
<path d="M722.133 224H722.666C723.516 224 724.192 223.749 724.694 223.246C725.197 222.743 725.448 222.067 725.448 221.218V214.315H724.161V221.244C724.161 221.712 724.027 222.085 723.758 222.362C723.49 222.631 723.126 222.765 722.666 222.765H722.133V224ZM729.488 224.156C729.999 224.156 730.459 224.061 730.866 223.87C731.273 223.671 731.603 223.411 731.854 223.09V224H733.037V219.242C733.037 218.765 732.92 218.349 732.686 217.994C732.461 217.63 732.144 217.348 731.737 217.149C731.33 216.941 730.857 216.837 730.32 216.837C729.904 216.837 729.505 216.911 729.124 217.058C728.743 217.205 728.409 217.409 728.123 217.669C727.837 217.92 727.629 218.206 727.499 218.527L728.552 219.073C728.699 218.744 728.925 218.475 729.228 218.267C729.531 218.059 729.887 217.955 730.294 217.955C730.753 217.955 731.122 218.076 731.399 218.319C731.685 218.553 731.828 218.861 731.828 219.242V219.567L729.436 219.957C728.647 220.087 728.067 220.351 727.694 220.75C727.33 221.14 727.148 221.612 727.148 222.167C727.148 222.756 727.365 223.237 727.798 223.61C728.24 223.974 728.803 224.156 729.488 224.156ZM728.422 222.128C728.422 221.825 728.522 221.569 728.721 221.361C728.929 221.153 729.258 221.01 729.709 220.932L731.828 220.581V221.023C731.828 221.413 731.737 221.768 731.555 222.089C731.373 222.41 731.117 222.665 730.788 222.856C730.459 223.038 730.073 223.129 729.631 223.129C729.284 223.129 728.994 223.034 728.76 222.843C728.535 222.652 728.422 222.414 728.422 222.128ZM734.912 224H736.121V219.853C736.121 219.281 736.281 218.83 736.602 218.501C736.922 218.172 737.33 218.007 737.824 218.007C738.318 218.007 738.721 218.172 739.033 218.501C739.345 218.822 739.501 219.272 739.501 219.853V224H740.723V219.463C740.723 218.96 740.606 218.514 740.372 218.124C740.146 217.725 739.834 217.413 739.436 217.188C739.046 216.954 738.599 216.837 738.097 216.837C737.663 216.837 737.273 216.928 736.927 217.11C736.58 217.283 736.303 217.53 736.095 217.851V216.993H734.912V224Z" fill="#52525B"/>
</svg>
