<svg width="20" height="20" viewBox="0 0 20 20" fill="none" xmlns="http://www.w3.org/2000/svg">
<path d="M10.0001 13.1251C8.27508 13.1251 6.87508 11.7251 6.87508 10.0001C6.87508 8.27508 8.27508 6.87508 10.0001 6.87508C11.7251 6.87508 13.1251 8.27508 13.1251 10.0001C13.1251 11.7251 11.7251 13.1251 10.0001 13.1251ZM10.0001 8.12508C8.96675 8.12508 8.12508 8.96674 8.12508 10.0001C8.12508 11.0334 8.96675 11.8751 10.0001 11.8751C11.0334 11.8751 11.8751 11.0334 11.8751 10.0001C11.8751 8.96674 11.0334 8.12508 10.0001 8.12508Z" fill="#7E92A2"/>
<path d="M12.6751 18.4917C12.5001 18.4917 12.3251 18.4667 12.1501 18.4251C11.6334 18.2834 11.2001 17.9584 10.9251 17.5001L10.8251 17.3334C10.3334 16.4834 9.65841 16.4834 9.16675 17.3334L9.07508 17.4917C8.80008 17.9584 8.36675 18.2917 7.85008 18.4251C7.32508 18.5667 6.78342 18.4917 6.32508 18.2167L4.89175 17.3917C4.38341 17.1001 4.01675 16.6251 3.85841 16.0501C3.70841 15.4751 3.78341 14.8834 4.07508 14.3751C4.31675 13.9501 4.38341 13.5667 4.24175 13.3251C4.10008 13.0834 3.74175 12.9417 3.25008 12.9417C2.03341 12.9417 1.04175 11.9501 1.04175 10.7334V9.26674C1.04175 8.05008 2.03341 7.05841 3.25008 7.05841C3.74175 7.05841 4.10008 6.91674 4.24175 6.67508C4.38341 6.43341 4.32508 6.05008 4.07508 5.62508C3.78341 5.11674 3.70841 4.51674 3.85841 3.95008C4.00841 3.37508 4.37508 2.90008 4.89175 2.60841L6.33342 1.78341C7.27508 1.22508 8.51675 1.55008 9.08342 2.50841L9.18342 2.67508C9.67508 3.52508 10.3501 3.52508 10.8417 2.67508L10.9334 2.51674C11.5001 1.55008 12.7417 1.22508 13.6917 1.79174L15.1251 2.61674C15.6334 2.90841 16.0001 3.38341 16.1584 3.95841C16.3084 4.53341 16.2334 5.12508 15.9417 5.63341C15.7001 6.05841 15.6334 6.44174 15.7751 6.68341C15.9167 6.92508 16.2751 7.06674 16.7667 7.06674C17.9834 7.06674 18.9751 8.05841 18.9751 9.27508V10.7417C18.9751 11.9584 17.9834 12.9501 16.7667 12.9501C16.2751 12.9501 15.9167 13.0917 15.7751 13.3334C15.6334 13.5751 15.6917 13.9584 15.9417 14.3834C16.2334 14.8917 16.3167 15.4917 16.1584 16.0584C16.0084 16.6334 15.6417 17.1084 15.1251 17.4001L13.6834 18.2251C13.3667 18.4001 13.0251 18.4917 12.6751 18.4917ZM10.0001 15.4084C10.7417 15.4084 11.4334 15.8751 11.9084 16.7001L12.0001 16.8584C12.1001 17.0334 12.2667 17.1584 12.4667 17.2084C12.6667 17.2584 12.8667 17.2334 13.0334 17.1334L14.4751 16.3001C14.6917 16.1751 14.8584 15.9667 14.9251 15.7167C14.9917 15.4667 14.9584 15.2084 14.8334 14.9917C14.3584 14.1751 14.3001 13.3334 14.6667 12.6917C15.0334 12.0501 15.7917 11.6834 16.7417 11.6834C17.2751 11.6834 17.7001 11.2584 17.7001 10.7251V9.25841C17.7001 8.73341 17.2751 8.30008 16.7417 8.30008C15.7917 8.30008 15.0334 7.93341 14.6667 7.29174C14.3001 6.65008 14.3584 5.80841 14.8334 4.99174C14.9584 4.77508 14.9917 4.51674 14.9251 4.26674C14.8584 4.01674 14.7001 3.81674 14.4834 3.68341L13.0417 2.85841C12.6834 2.64174 12.2084 2.76674 11.9917 3.13341L11.9001 3.29174C11.4251 4.11674 10.7334 4.58341 9.99175 4.58341C9.25008 4.58341 8.55841 4.11674 8.08342 3.29174L7.99175 3.12508C7.78342 2.77508 7.31675 2.65008 6.95842 2.85841L5.51675 3.69174C5.30008 3.81674 5.13341 4.02508 5.06675 4.27508C5.00008 4.52508 5.03341 4.78341 5.15841 5.00008C5.63342 5.81674 5.69175 6.65841 5.32508 7.30008C4.95841 7.94174 4.20008 8.30841 3.25008 8.30841C2.71675 8.30841 2.29175 8.73341 2.29175 9.26674V10.7334C2.29175 11.2584 2.71675 11.6917 3.25008 11.6917C4.20008 11.6917 4.95841 12.0584 5.32508 12.7001C5.69175 13.3417 5.63342 14.1834 5.15841 15.0001C5.03341 15.2167 5.00008 15.4751 5.06675 15.7251C5.13341 15.9751 5.29175 16.1751 5.50842 16.3084L6.95008 17.1334C7.12508 17.2417 7.33341 17.2667 7.52508 17.2167C7.72508 17.1667 7.89175 17.0334 8.00008 16.8584L8.09175 16.7001C8.56675 15.8834 9.25842 15.4084 10.0001 15.4084Z" fill="#7E92A2"/>
</svg>
