<svg width="18" height="18" viewBox="0 0 18 18" fill="none" xmlns="http://www.w3.org/2000/svg">
<path d="M12.3334 17.9583H5.66677C1.81677 17.9583 1.10011 16.1666 0.916775 14.425L0.291775 7.74996C0.200108 6.87496 0.175108 5.58329 1.04177 4.61663C1.79177 3.78329 3.03344 3.38329 4.83344 3.38329H13.1668C14.9751 3.38329 16.2168 3.79163 16.9584 4.61663C17.8251 5.58329 17.8001 6.87496 17.7084 7.75829L17.0834 14.4166C16.9001 16.1666 16.1834 17.9583 12.3334 17.9583ZM4.83344 4.62496C3.42511 4.62496 2.45844 4.89996 1.96677 5.44996C1.55844 5.89996 1.42511 6.59163 1.53344 7.62496L2.15844 14.3C2.30011 15.6166 2.65844 16.7083 5.66677 16.7083H12.3334C15.3334 16.7083 15.7001 15.6166 15.8418 14.2916L16.4668 7.63329C16.5751 6.59163 16.4418 5.89996 16.0334 5.44996C15.5418 4.89996 14.5751 4.62496 13.1668 4.62496H4.83344Z" fill="#7E92A2"/>
<path d="M12.3334 4.62496C11.9918 4.62496 11.7084 4.34163 11.7084 3.99996V3.33329C11.7084 1.84996 11.7084 1.29163 9.66677 1.29163H8.33344C6.29177 1.29163 6.29177 1.84996 6.29177 3.33329V3.99996C6.29177 4.34163 6.00844 4.62496 5.66677 4.62496C5.32511 4.62496 5.04177 4.34163 5.04177 3.99996V3.33329C5.04177 1.86663 5.04177 0.041626 8.33344 0.041626H9.66677C12.9584 0.041626 12.9584 1.86663 12.9584 3.33329V3.99996C12.9584 4.34163 12.6751 4.62496 12.3334 4.62496Z" fill="#7E92A2"/>
<path d="M9.00011 12.9583C6.70844 12.9583 6.70844 11.5416 6.70844 10.6916V9.83329C6.70844 8.65829 6.99177 8.37496 8.16677 8.37496H9.83344C11.0084 8.37496 11.2918 8.65829 11.2918 9.83329V10.6666C11.2918 11.5333 11.2918 12.9583 9.00011 12.9583ZM7.95844 9.62496C7.95844 9.69163 7.95844 9.76663 7.95844 9.83329V10.6916C7.95844 11.55 7.95844 11.7083 9.00011 11.7083C10.0418 11.7083 10.0418 11.575 10.0418 10.6833V9.83329C10.0418 9.76663 10.0418 9.69163 10.0418 9.62496C9.97511 9.62496 9.90011 9.62496 9.83344 9.62496H8.16677C8.10011 9.62496 8.02511 9.62496 7.95844 9.62496Z" fill="#7E92A2"/>
<path d="M10.6668 11.3083C10.3584 11.3083 10.0834 11.075 10.0501 10.7583C10.0084 10.4166 10.2501 10.1 10.5918 10.0583C12.7918 9.78329 14.9001 8.94996 16.6751 7.65829C16.9501 7.44996 17.3418 7.51663 17.5501 7.79996C17.7501 8.07496 17.6918 8.46663 17.4084 8.67496C15.4584 10.0916 13.1584 11 10.7418 11.3083C10.7168 11.3083 10.6918 11.3083 10.6668 11.3083Z" fill="#7E92A2"/>
<path d="M7.33344 11.3166C7.30844 11.3166 7.28344 11.3166 7.25844 11.3166C4.97511 11.0583 2.75011 10.225 0.825108 8.90829C0.541775 8.71663 0.466775 8.32496 0.658441 8.04163C0.850108 7.75829 1.24177 7.68329 1.52511 7.87496C3.28344 9.07496 5.30844 9.83329 7.39177 10.075C7.73344 10.1166 7.98344 10.425 7.94177 10.7666C7.91677 11.0833 7.65011 11.3166 7.33344 11.3166Z" fill="#7E92A2"/>
</svg>
