<svg width="20" height="20" viewBox="0 0 20 20" fill="none" xmlns="http://www.w3.org/2000/svg">
<path d="M7.63301 9.68329C7.60801 9.68329 7.59134 9.68329 7.56634 9.68329C7.52467 9.67496 7.46634 9.67496 7.41634 9.68329C4.99967 9.60829 3.17467 7.70829 3.17467 5.36663C3.17467 2.98329 5.11634 1.04163 7.49968 1.04163C9.88301 1.04163 11.8247 2.98329 11.8247 5.36663C11.8163 7.70829 9.98301 9.60829 7.65801 9.68329C7.64967 9.68329 7.64134 9.68329 7.63301 9.68329ZM7.49968 2.29163C5.80801 2.29163 4.42467 3.67496 4.42467 5.36663C4.42467 7.03329 5.72467 8.37496 7.38301 8.43329C7.43301 8.42496 7.54134 8.42496 7.64968 8.43329C9.28301 8.35829 10.5663 7.01663 10.5747 5.36663C10.5747 3.67496 9.19134 2.29163 7.49968 2.29163Z" fill="#7E92A2"/>
<path d="M13.783 9.79163C13.758 9.79163 13.733 9.79163 13.708 9.78329C13.3663 9.81663 13.0163 9.57496 12.983 9.23329C12.9497 8.89163 13.158 8.58329 13.4997 8.54163C13.5997 8.53329 13.708 8.53329 13.7997 8.53329C15.0163 8.46663 15.9663 7.46663 15.9663 6.24163C15.9663 4.97496 14.9413 3.94996 13.6747 3.94996C13.333 3.95829 13.0497 3.67496 13.0497 3.33329C13.0497 2.99163 13.333 2.70829 13.6747 2.70829C15.6247 2.70829 17.2163 4.29996 17.2163 6.24996C17.2163 8.16663 15.7163 9.71663 13.808 9.79163C13.7997 9.79163 13.7913 9.79163 13.783 9.79163Z" fill="#7E92A2"/>
<path d="M7.64134 18.7916C6.00801 18.7916 4.36634 18.375 3.12467 17.5416C1.96634 16.775 1.33301 15.725 1.33301 14.5833C1.33301 13.4416 1.96634 12.3833 3.12467 11.6083C5.62468 9.94996 9.67468 9.94996 12.158 11.6083C13.308 12.375 13.9497 13.425 13.9497 14.5666C13.9497 15.7083 13.3163 16.7666 12.158 17.5416C10.908 18.375 9.27468 18.7916 7.64134 18.7916ZM3.81634 12.6583C3.01634 13.1916 2.58301 13.875 2.58301 14.5916C2.58301 15.3 3.02467 15.9833 3.81634 16.5083C5.89134 17.9 9.39134 17.9 11.4663 16.5083C12.2663 15.975 12.6997 15.2916 12.6997 14.575C12.6997 13.8666 12.258 13.1833 11.4663 12.6583C9.39134 11.275 5.89134 11.275 3.81634 12.6583Z" fill="#7E92A2"/>
<path d="M15.283 17.2916C14.9913 17.2916 14.733 17.0916 14.6747 16.7916C14.608 16.45 14.8247 16.125 15.158 16.05C15.683 15.9416 16.1663 15.7333 16.5413 15.4416C17.0163 15.0833 17.2747 14.6333 17.2747 14.1583C17.2747 13.6833 17.0163 13.2333 16.5497 12.8833C16.183 12.6 15.7247 12.4 15.183 12.275C14.8497 12.2 14.633 11.8666 14.708 11.525C14.783 11.1916 15.1163 10.975 15.458 11.05C16.1747 11.2083 16.7997 11.4916 17.308 11.8833C18.083 12.4666 18.5247 13.2916 18.5247 14.1583C18.5247 15.025 18.0747 15.85 17.2997 16.4416C16.783 16.8416 16.133 17.1333 15.4163 17.275C15.3663 17.2916 15.3247 17.2916 15.283 17.2916Z" fill="#7E92A2"/>
</svg>
