<svg width="20" height="20" viewBox="0 0 20 20" fill="none" xmlns="http://www.w3.org/2000/svg">
<path d="M16.475 11.4584H13.1083C11.4333 11.4584 10.625 10.6834 10.625 9.08341V3.41675C10.625 1.81675 11.4417 1.04175 13.1083 1.04175H16.475C18.15 1.04175 18.9583 1.81675 18.9583 3.41675V9.08341C18.9583 10.6834 18.1417 11.4584 16.475 11.4584ZM13.1083 2.29175C12.05 2.29175 11.875 2.57508 11.875 3.41675V9.08341C11.875 9.92508 12.05 10.2084 13.1083 10.2084H16.475C17.5333 10.2084 17.7083 9.92508 17.7083 9.08341V3.41675C17.7083 2.57508 17.5333 2.29175 16.475 2.29175H13.1083V2.29175Z" fill="#7E92A2"/>
<path d="M16.475 18.4585H13.1083C12.3384 18.4585 11.8662 18.2796 11.5842 18.0098C11.3066 17.744 11.125 17.3051 11.125 16.5835V15.0835C11.125 14.3633 11.308 13.9239 11.5869 13.6577C11.8704 13.3871 12.3432 13.2085 13.1083 13.2085H16.475C17.2449 13.2085 17.7171 13.3874 17.9991 13.6572C18.2768 13.9229 18.4583 14.3619 18.4583 15.0835V16.5835C18.4583 17.3037 18.2754 17.7431 17.9964 18.0093C17.713 18.2799 17.2401 18.4585 16.475 18.4585ZM13.1083 13.4585C12.5806 13.4585 12.0756 13.5174 11.7412 13.8518C11.4031 14.19 11.375 14.6764 11.375 15.0835V16.5835C11.375 16.9906 11.4031 17.477 11.7412 17.8152C12.0756 18.1496 12.5806 18.2085 13.1083 18.2085H16.475C17.0027 18.2085 17.5077 18.1496 17.8421 17.8152C18.1802 17.477 18.2083 16.9906 18.2083 16.5835V15.0835C18.2083 14.6764 18.1802 14.19 17.8421 13.8518C17.5077 13.5174 17.0027 13.4585 16.475 13.4585H13.1083Z" stroke="#7E92A2"/>
<path d="M6.89175 18.9584H3.52508C1.85008 18.9584 1.04175 18.1834 1.04175 16.5834V10.9167C1.04175 9.31675 1.85841 8.54175 3.52508 8.54175H6.89175C8.56675 8.54175 9.37508 9.31675 9.37508 10.9167V16.5834C9.37508 18.1834 8.55841 18.9584 6.89175 18.9584ZM3.52508 9.79175C2.46675 9.79175 2.29175 10.0751 2.29175 10.9167V16.5834C2.29175 17.4251 2.46675 17.7084 3.52508 17.7084H6.89175C7.95008 17.7084 8.12508 17.4251 8.12508 16.5834V10.9167C8.12508 10.0751 7.95008 9.79175 6.89175 9.79175H3.52508V9.79175Z" fill="#7E92A2"/>
<path d="M6.89175 7.29175H3.52508C1.85008 7.29175 1.04175 6.51675 1.04175 4.91675V3.41675C1.04175 1.81675 1.85841 1.04175 3.52508 1.04175H6.89175C8.56675 1.04175 9.37508 1.81675 9.37508 3.41675V4.91675C9.37508 6.51675 8.55841 7.29175 6.89175 7.29175ZM3.52508 2.29175C2.46675 2.29175 2.29175 2.57508 2.29175 3.41675V4.91675C2.29175 5.75841 2.46675 6.04175 3.52508 6.04175H6.89175C7.95008 6.04175 8.12508 5.75841 8.12508 4.91675V3.41675C8.12508 2.57508 7.95008 2.29175 6.89175 2.29175H3.52508V2.29175Z" fill="#7E92A2"/>
</svg>
