<svg width="20" height="20" viewBox="0 0 20 20" fill="none" xmlns="http://www.w3.org/2000/svg">
<path d="M17.9166 9.08329V3.41663C17.9166 2.16663 17.3833 1.66663 16.0583 1.66663H12.6916C11.3666 1.66663 10.8333 2.16663 10.8333 3.41663V9.08329C10.8333 10.3333 11.3666 10.8333 12.6916 10.8333H16.0583C17.3833 10.8333 17.9166 10.3333 17.9166 9.08329Z" fill="white"/>
<path d="M9.16658 10.9166V16.5833C9.16658 17.8333 8.63325 18.3333 7.30825 18.3333H3.94159C2.61659 18.3333 2.08325 17.8333 2.08325 16.5833V10.9166C2.08325 9.66663 2.61659 9.16663 3.94159 9.16663H7.30825C8.63325 9.16663 9.16658 9.66663 9.16658 10.9166Z" fill="white"/>
<path d="M17.9166 16.5833V14.25C17.9166 13 17.3833 12.5 16.0583 12.5H12.6916C11.3666 12.5 10.8333 13 10.8333 14.25V16.5833C10.8333 17.8333 11.3666 18.3333 12.6916 18.3333H16.0583C17.3833 18.3333 17.9166 17.8333 17.9166 16.5833Z" fill="white"/>
<path d="M9.16658 5.74996V3.41663C9.16658 2.16663 8.63325 1.66663 7.30825 1.66663H3.94159C2.61659 1.66663 2.08325 2.16663 2.08325 3.41663V5.74996C2.08325 6.99996 2.61659 7.49996 3.94159 7.49996H7.30825C8.63325 7.49996 9.16658 6.99996 9.16658 5.74996Z" fill="white"/>
</svg>
