<svg width="21" height="21" viewBox="0 0 21 21" fill="none" xmlns="http://www.w3.org/2000/svg">
<g clip-path="url(#clip0_71_1452)">
<path d="M10.7512 7.469C11.6681 7.469 12.4182 6.71885 12.4182 5.802C12.4182 4.88516 11.6681 4.13501 10.7512 4.13501C9.83438 4.13501 9.08423 4.88516 9.08423 5.802C9.08423 6.71885 9.83438 7.469 10.7512 7.469ZM10.7512 9.13599C9.83438 9.13599 9.08423 9.88614 9.08423 10.803C9.08423 11.7198 9.83438 12.47 10.7512 12.47C11.6681 12.47 12.4182 11.7198 12.4182 10.803C12.4182 9.88614 11.6681 9.13599 10.7512 9.13599ZM10.7512 14.137C9.83438 14.137 9.08423 14.8871 9.08423 15.804C9.08423 16.7208 9.83438 17.471 10.7512 17.471C11.6681 17.471 12.4182 16.7208 12.4182 15.804C12.4182 14.8871 11.6681 14.137 10.7512 14.137Z" fill="black"/>
</g>
<defs>
<clipPath id="clip0_71_1452">
<rect width="20.0039" height="20.0039" fill="white" transform="translate(0.749268 0.801025)"/>
</clipPath>
</defs>
</svg>
