<svg width="284" height="284" viewBox="0 0 284 284" fill="none" xmlns="http://www.w3.org/2000/svg">
<path d="M241.749 142.075C241.749 155.273 239.162 168.341 234.137 180.534C229.112 192.728 221.746 203.807 212.46 213.139L141.749 142.075H241.749Z" fill="#A155B9"/>
<path d="M212.812 212.812C201.888 223.736 188.588 231.989 173.95 236.929C159.313 241.868 143.732 243.361 128.422 241.289C113.113 239.217 98.4887 233.638 85.6899 224.986C72.8912 216.334 62.2636 204.842 54.6356 191.408C47.0077 177.974 42.5855 162.959 41.7139 147.535C40.8422 132.11 43.5446 116.693 49.6104 102.485C55.6763 88.2768 64.9416 75.6614 76.684 65.6224C88.4265 55.5833 102.329 48.3919 117.307 44.6087L141.875 141.875L212.812 212.812Z" fill="#16BFD6"/>
<path d="M62.0989 132.345H62.4604V134.719H62.2556C61.2192 134.719 60.3234 134.88 59.5682 135.201C58.821 135.522 58.2064 135.964 57.7243 136.527C57.2423 137.089 56.8807 137.748 56.6397 138.503C56.4067 139.25 56.2902 140.046 56.2902 140.889V143.649C56.2902 144.348 56.3666 144.967 56.5192 145.505C56.6718 146.035 56.8848 146.481 57.1579 146.843C57.4391 147.196 57.7605 147.465 58.122 147.65C58.4835 147.835 58.8732 147.927 59.291 147.927C59.7248 147.927 60.1185 147.839 60.472 147.662C60.8255 147.477 61.1268 147.224 61.3758 146.903C61.6249 146.581 61.8137 146.2 61.9422 145.758C62.0708 145.316 62.1351 144.834 62.1351 144.312C62.1351 143.814 62.0708 143.348 61.9422 142.914C61.8217 142.472 61.641 142.086 61.3999 141.757C61.1589 141.42 60.8576 141.158 60.4961 140.974C60.1426 140.781 59.7329 140.684 59.2669 140.684C58.6884 140.684 58.1622 140.821 57.6882 141.094C57.2222 141.367 56.8446 141.725 56.5554 142.167C56.2742 142.601 56.1215 143.063 56.0974 143.553L54.9887 143.191C55.053 142.444 55.2177 141.773 55.4828 141.179C55.756 140.584 56.1135 140.078 56.5554 139.66C56.9972 139.242 57.5074 138.925 58.0859 138.708C58.6723 138.483 59.3151 138.371 60.014 138.371C60.8657 138.371 61.6048 138.531 62.2315 138.853C62.8581 139.174 63.3763 139.612 63.7861 140.166C64.2038 140.713 64.5132 141.339 64.714 142.046C64.9229 142.745 65.0273 143.476 65.0273 144.24C65.0273 145.083 64.8988 145.87 64.6417 146.602C64.3846 147.325 64.007 147.959 63.5089 148.506C63.0188 149.052 62.4203 149.478 61.7133 149.783C61.0143 150.088 60.2189 150.241 59.3271 150.241C58.3871 150.241 57.5476 150.06 56.8084 149.699C56.0773 149.337 55.4547 148.839 54.9405 148.204C54.4343 147.57 54.0487 146.839 53.7836 146.011C53.5185 145.184 53.3859 144.308 53.3859 143.384V142.179C53.3859 140.845 53.5546 139.588 53.892 138.407C54.2295 137.218 54.7477 136.169 55.4466 135.261C56.1536 134.354 57.0575 133.643 58.1582 133.128C59.2588 132.606 60.5724 132.345 62.0989 132.345ZM69.4766 141.841L67.1628 141.275L68.1149 132.453H77.575V134.912H70.5251L70.0431 139.214C70.3162 139.053 70.6938 138.897 71.1759 138.744C71.6579 138.583 72.2082 138.503 72.8269 138.503C73.6544 138.503 74.3935 138.64 75.0443 138.913C75.7031 139.178 76.2615 139.568 76.7194 140.082C77.1774 140.588 77.5268 141.207 77.7679 141.938C78.0089 142.661 78.1294 143.476 78.1294 144.384C78.1294 145.196 78.0089 145.955 77.7679 146.662C77.5349 147.369 77.1814 147.991 76.7074 148.53C76.2333 149.068 75.6348 149.49 74.9117 149.795C74.1967 150.092 73.3491 150.241 72.3689 150.241C71.6378 150.241 70.9348 150.137 70.26 149.928C69.5931 149.711 68.9946 149.393 68.4643 148.976C67.9341 148.55 67.5083 148.028 67.1869 147.409C66.8656 146.782 66.6808 146.063 66.6326 145.252H69.4766C69.549 145.822 69.7056 146.308 69.9466 146.71C70.1957 147.104 70.5251 147.405 70.9348 147.614C71.3446 147.823 71.8186 147.927 72.3569 147.927C72.847 147.927 73.2688 147.843 73.6223 147.674C73.9758 147.497 74.269 147.248 74.502 146.927C74.743 146.598 74.9198 146.212 75.0322 145.77C75.1528 145.328 75.213 144.838 75.213 144.3C75.213 143.786 75.1447 143.316 75.0081 142.89C74.8796 142.464 74.6828 142.094 74.4176 141.781C74.1605 141.468 73.8352 141.227 73.4415 141.058C73.0478 140.881 72.5939 140.793 72.0797 140.793C71.3888 140.793 70.8585 140.893 70.4889 141.094C70.1274 141.295 69.79 141.544 69.4766 141.841ZM79.4092 136.756V135.828C79.4092 135.161 79.5539 134.554 79.8431 134.008C80.1323 133.462 80.5541 133.024 81.1085 132.694C81.6628 132.365 82.3296 132.2 83.109 132.2C83.9124 132.2 84.5872 132.365 85.1336 132.694C85.6879 133.024 86.1097 133.462 86.3989 134.008C86.6882 134.554 86.8328 135.161 86.8328 135.828V136.756C86.8328 137.406 86.6882 138.005 86.3989 138.551C86.1177 139.098 85.7 139.536 85.1456 139.865C84.5993 140.194 83.9284 140.359 83.1331 140.359C82.3457 140.359 81.6708 140.194 81.1085 139.865C80.5541 139.536 80.1323 139.098 79.8431 138.551C79.5539 138.005 79.4092 137.406 79.4092 136.756ZM81.4218 135.828V136.756C81.4218 137.077 81.482 137.382 81.6026 137.672C81.7311 137.961 81.9239 138.194 82.181 138.371C82.4381 138.547 82.7555 138.636 83.1331 138.636C83.5187 138.636 83.832 138.547 84.0731 138.371C84.3221 138.194 84.5069 137.961 84.6274 137.672C84.7479 137.382 84.8082 137.077 84.8082 136.756V135.828C84.8082 135.498 84.7439 135.189 84.6154 134.9C84.4948 134.603 84.3101 134.366 84.061 134.189C83.8119 134.012 83.4946 133.924 83.109 133.924C82.7394 133.924 82.4261 134.012 82.169 134.189C81.9199 134.366 81.7311 134.603 81.6026 134.9C81.482 135.189 81.4218 135.498 81.4218 135.828ZM87.8692 146.638V145.698C87.8692 145.039 88.0138 144.436 88.303 143.89C88.6003 143.344 89.0261 142.906 89.5805 142.576C90.1348 142.247 90.8016 142.082 91.5809 142.082C92.3844 142.082 93.0592 142.247 93.6056 142.576C94.1599 142.906 94.5777 143.344 94.8589 143.89C95.1481 144.436 95.2927 145.039 95.2927 145.698V146.638C95.2927 147.297 95.1481 147.899 94.8589 148.445C94.5777 148.992 94.1639 149.43 93.6176 149.759C93.0713 150.088 92.4044 150.253 91.6171 150.253C90.8217 150.253 90.1428 150.088 89.5805 149.759C89.0261 149.43 88.6003 148.992 88.303 148.445C88.0138 147.899 87.8692 147.297 87.8692 146.638ZM89.8938 145.698V146.638C89.8938 146.959 89.9581 147.264 90.0866 147.554C90.2232 147.843 90.42 148.08 90.6771 148.265C90.9342 148.441 91.2435 148.53 91.6051 148.53C92.0148 148.53 92.3442 148.441 92.5932 148.265C92.8423 148.08 93.0191 147.847 93.1235 147.566C93.236 147.276 93.2922 146.967 93.2922 146.638V145.698C93.2922 145.368 93.2279 145.059 93.0994 144.77C92.9789 144.481 92.7901 144.248 92.533 144.071C92.2839 143.894 91.9666 143.806 91.5809 143.806C91.2033 143.806 90.89 143.894 90.641 144.071C90.3919 144.248 90.2031 144.481 90.0745 144.77C89.954 145.059 89.8938 145.368 89.8938 145.698ZM92.304 134.96L83.7356 148.674L82.2533 147.819L90.8217 134.104L92.304 134.96Z" fill="#0B1354"/>
<path d="M115.91 44.9731C130.916 40.9524 146.65 40.4715 161.873 43.5682C177.096 46.665 191.392 53.2549 203.634 62.8185C215.876 72.3821 225.73 84.6582 232.419 98.6793C239.108 112.7 242.45 128.083 242.18 143.616L141.875 141.875L115.91 44.9731Z" fill="#F765A3"/>
<path d="M160.088 111.686V114H148.326V112.012L154.038 105.781C154.665 105.074 155.159 104.463 155.52 103.949C155.882 103.435 156.135 102.973 156.279 102.563C156.432 102.146 156.508 101.74 156.508 101.346C156.508 100.792 156.404 100.306 156.195 99.888C155.994 99.4622 155.697 99.1288 155.303 98.8878C154.91 98.6387 154.432 98.5142 153.869 98.5142C153.218 98.5142 152.672 98.6548 152.23 98.936C151.788 99.2172 151.455 99.6069 151.23 100.105C151.005 100.595 150.893 101.157 150.893 101.792H147.988C147.988 100.772 148.221 99.8398 148.687 98.9963C149.153 98.1446 149.828 97.4698 150.712 96.9717C151.596 96.4655 152.66 96.2124 153.905 96.2124C155.078 96.2124 156.075 96.4093 156.894 96.8029C157.714 97.1966 158.336 97.755 158.762 98.4781C159.196 99.2011 159.413 100.057 159.413 101.045C159.413 101.591 159.324 102.134 159.148 102.672C158.971 103.21 158.718 103.748 158.388 104.287C158.067 104.817 157.685 105.351 157.244 105.89C156.802 106.42 156.316 106.958 155.785 107.504L151.989 111.686H160.088ZM164.477 105.841L162.163 105.275L163.115 96.4535H172.575V98.9119H165.525L165.043 103.214C165.316 103.053 165.694 102.897 166.176 102.744C166.658 102.583 167.208 102.503 167.827 102.503C168.654 102.503 169.394 102.64 170.044 102.913C170.703 103.178 171.261 103.568 171.719 104.082C172.177 104.588 172.527 105.207 172.768 105.938C173.009 106.661 173.129 107.476 173.129 108.384C173.129 109.196 173.009 109.955 172.768 110.662C172.535 111.369 172.181 111.991 171.707 112.53C171.233 113.068 170.635 113.49 169.912 113.795C169.197 114.092 168.349 114.241 167.369 114.241C166.638 114.241 165.935 114.137 165.26 113.928C164.593 113.711 163.995 113.393 163.464 112.976C162.934 112.55 162.508 112.028 162.187 111.409C161.866 110.782 161.681 110.063 161.633 109.252H164.477C164.549 109.822 164.706 110.308 164.947 110.71C165.196 111.104 165.525 111.405 165.935 111.614C166.345 111.823 166.819 111.927 167.357 111.927C167.847 111.927 168.269 111.843 168.622 111.674C168.976 111.497 169.269 111.248 169.502 110.927C169.743 110.598 169.92 110.212 170.032 109.77C170.153 109.328 170.213 108.838 170.213 108.3C170.213 107.786 170.145 107.316 170.008 106.89C169.88 106.464 169.683 106.094 169.418 105.781C169.161 105.468 168.835 105.227 168.441 105.058C168.048 104.881 167.594 104.793 167.08 104.793C166.389 104.793 165.859 104.893 165.489 105.094C165.127 105.295 164.79 105.544 164.477 105.841ZM174.409 100.756V99.8278C174.409 99.161 174.554 98.5544 174.843 98.0081C175.132 97.4617 175.554 97.0239 176.108 96.6945C176.663 96.3651 177.33 96.2004 178.109 96.2004C178.912 96.2004 179.587 96.3651 180.134 96.6945C180.688 97.0239 181.11 97.4617 181.399 98.0081C181.688 98.5544 181.833 99.161 181.833 99.8278V100.756C181.833 101.406 181.688 102.005 181.399 102.551C181.118 103.098 180.7 103.536 180.146 103.865C179.599 104.194 178.928 104.359 178.133 104.359C177.346 104.359 176.671 104.194 176.108 103.865C175.554 103.536 175.132 103.098 174.843 102.551C174.554 102.005 174.409 101.406 174.409 100.756ZM176.422 99.8278V100.756C176.422 101.077 176.482 101.382 176.603 101.672C176.731 101.961 176.924 102.194 177.181 102.371C177.438 102.547 177.755 102.636 178.133 102.636C178.519 102.636 178.832 102.547 179.073 102.371C179.322 102.194 179.507 101.961 179.627 101.672C179.748 101.382 179.808 101.077 179.808 100.756V99.8278C179.808 99.4984 179.744 99.1891 179.615 98.8999C179.495 98.6026 179.31 98.3656 179.061 98.1888C178.812 98.0121 178.495 97.9237 178.109 97.9237C177.739 97.9237 177.426 98.0121 177.169 98.1888C176.92 98.3656 176.731 98.6026 176.603 98.8999C176.482 99.1891 176.422 99.4984 176.422 99.8278ZM182.869 110.638V109.698C182.869 109.039 183.014 108.436 183.303 107.89C183.6 107.344 184.026 106.906 184.58 106.576C185.135 106.247 185.802 106.082 186.581 106.082C187.384 106.082 188.059 106.247 188.606 106.576C189.16 106.906 189.578 107.344 189.859 107.89C190.148 108.436 190.293 109.039 190.293 109.698V110.638C190.293 111.297 190.148 111.899 189.859 112.445C189.578 112.992 189.164 113.43 188.618 113.759C188.071 114.088 187.404 114.253 186.617 114.253C185.822 114.253 185.143 114.088 184.58 113.759C184.026 113.43 183.6 112.992 183.303 112.445C183.014 111.899 182.869 111.297 182.869 110.638ZM184.894 109.698V110.638C184.894 110.959 184.958 111.264 185.087 111.554C185.223 111.843 185.42 112.08 185.677 112.265C185.934 112.441 186.244 112.53 186.605 112.53C187.015 112.53 187.344 112.441 187.593 112.265C187.842 112.08 188.019 111.847 188.124 111.566C188.236 111.276 188.292 110.967 188.292 110.638V109.698C188.292 109.368 188.228 109.059 188.099 108.77C187.979 108.481 187.79 108.248 187.533 108.071C187.284 107.894 186.967 107.806 186.581 107.806C186.203 107.806 185.89 107.894 185.641 108.071C185.392 108.248 185.203 108.481 185.075 108.77C184.954 109.059 184.894 109.368 184.894 109.698ZM187.304 98.9601L178.736 112.674L177.253 111.819L185.822 98.1045L187.304 98.9601Z" fill="#0B1354"/>
<path d="M192.255 156.393V174H189.351V159.84L185.049 161.298V158.9L191.906 156.393H192.255ZM208.864 163.756V166.625C208.864 167.999 208.728 169.171 208.455 170.144C208.189 171.108 207.804 171.891 207.298 172.494C206.791 173.096 206.185 173.538 205.478 173.819C204.779 174.1 203.996 174.241 203.128 174.241C202.437 174.241 201.794 174.153 201.2 173.976C200.613 173.799 200.083 173.522 199.609 173.144C199.135 172.767 198.729 172.281 198.392 171.686C198.062 171.084 197.805 170.365 197.621 169.529C197.444 168.693 197.355 167.725 197.355 166.625V163.756C197.355 162.375 197.492 161.21 197.765 160.262C198.038 159.306 198.428 158.53 198.934 157.936C199.44 157.333 200.043 156.895 200.742 156.622C201.449 156.349 202.236 156.212 203.104 156.212C203.803 156.212 204.446 156.301 205.032 156.478C205.627 156.646 206.157 156.915 206.623 157.285C207.097 157.655 207.498 158.137 207.828 158.731C208.165 159.318 208.422 160.029 208.599 160.864C208.776 161.692 208.864 162.656 208.864 163.756ZM205.96 167.034V163.323C205.96 162.624 205.92 162.009 205.839 161.479C205.759 160.941 205.639 160.487 205.478 160.117C205.325 159.739 205.132 159.434 204.899 159.201C204.666 158.96 204.401 158.787 204.104 158.683C203.807 158.57 203.473 158.514 203.104 158.514C202.654 158.514 202.252 158.603 201.899 158.779C201.545 158.948 201.248 159.221 201.007 159.599C200.766 159.976 200.581 160.475 200.453 161.093C200.332 161.704 200.272 162.447 200.272 163.323V167.034C200.272 167.741 200.312 168.364 200.392 168.902C200.473 169.441 200.593 169.903 200.754 170.288C200.915 170.666 201.107 170.979 201.332 171.228C201.565 171.469 201.83 171.646 202.128 171.758C202.433 171.871 202.766 171.927 203.128 171.927C203.586 171.927 203.992 171.839 204.345 171.662C204.699 171.485 204.996 171.204 205.237 170.818C205.478 170.425 205.659 169.915 205.779 169.288C205.9 168.661 205.96 167.91 205.96 167.034ZM210.409 160.756V159.828C210.409 159.161 210.554 158.554 210.843 158.008C211.132 157.462 211.554 157.024 212.108 156.694C212.663 156.365 213.33 156.2 214.109 156.2C214.912 156.2 215.587 156.365 216.134 156.694C216.688 157.024 217.11 157.462 217.399 158.008C217.688 158.554 217.833 159.161 217.833 159.828V160.756C217.833 161.406 217.688 162.005 217.399 162.551C217.118 163.098 216.7 163.536 216.146 163.865C215.599 164.194 214.928 164.359 214.133 164.359C213.346 164.359 212.671 164.194 212.108 163.865C211.554 163.536 211.132 163.098 210.843 162.551C210.554 162.005 210.409 161.406 210.409 160.756ZM212.422 159.828V160.756C212.422 161.077 212.482 161.382 212.603 161.672C212.731 161.961 212.924 162.194 213.181 162.371C213.438 162.547 213.755 162.636 214.133 162.636C214.519 162.636 214.832 162.547 215.073 162.371C215.322 162.194 215.507 161.961 215.627 161.672C215.748 161.382 215.808 161.077 215.808 160.756V159.828C215.808 159.498 215.744 159.189 215.615 158.9C215.495 158.603 215.31 158.366 215.061 158.189C214.812 158.012 214.495 157.924 214.109 157.924C213.739 157.924 213.426 158.012 213.169 158.189C212.92 158.366 212.731 158.603 212.603 158.9C212.482 159.189 212.422 159.498 212.422 159.828ZM218.869 170.638V169.698C218.869 169.039 219.014 168.436 219.303 167.89C219.6 167.344 220.026 166.906 220.58 166.576C221.135 166.247 221.802 166.082 222.581 166.082C223.384 166.082 224.059 166.247 224.606 166.576C225.16 166.906 225.578 167.344 225.859 167.89C226.148 168.436 226.293 169.039 226.293 169.698V170.638C226.293 171.297 226.148 171.899 225.859 172.445C225.578 172.992 225.164 173.43 224.618 173.759C224.071 174.088 223.404 174.253 222.617 174.253C221.822 174.253 221.143 174.088 220.58 173.759C220.026 173.43 219.6 172.992 219.303 172.445C219.014 171.899 218.869 171.297 218.869 170.638ZM220.894 169.698V170.638C220.894 170.959 220.958 171.264 221.087 171.554C221.223 171.843 221.42 172.08 221.677 172.265C221.934 172.441 222.244 172.53 222.605 172.53C223.015 172.53 223.344 172.441 223.593 172.265C223.842 172.08 224.019 171.847 224.124 171.566C224.236 171.276 224.292 170.967 224.292 170.638V169.698C224.292 169.368 224.228 169.059 224.099 168.77C223.979 168.481 223.79 168.248 223.533 168.071C223.284 167.894 222.967 167.806 222.581 167.806C222.203 167.806 221.89 167.894 221.641 168.071C221.392 168.248 221.203 168.481 221.075 168.77C220.954 169.059 220.894 169.368 220.894 169.698ZM223.304 158.96L214.736 172.674L213.253 171.819L221.822 158.104L223.304 158.96Z" fill="#0B1354"/>
</svg>
