<svg width="20" height="20" viewBox="0 0 20 20" fill="none" xmlns="http://www.w3.org/2000/svg">
<path d="M12.025 15.6833C11.8666 15.6833 11.7083 15.625 11.5833 15.5C11.3416 15.2583 11.3416 14.8583 11.5833 14.6166L16.2 9.99998L11.5833 5.38331C11.3416 5.14164 11.3416 4.74164 11.5833 4.49998C11.825 4.25831 12.225 4.25831 12.4666 4.49998L17.525 9.55831C17.7666 9.79998 17.7666 10.2 17.525 10.4416L12.4666 15.5C12.3416 15.625 12.1833 15.6833 12.025 15.6833Z" fill="#514EF3"/>
<path d="M16.9416 10.625H2.91663C2.57496 10.625 2.29163 10.3416 2.29163 9.99998C2.29163 9.65831 2.57496 9.37498 2.91663 9.37498H16.9416C17.2833 9.37498 17.5666 9.65831 17.5666 9.99998C17.5666 10.3416 17.2833 10.625 16.9416 10.625Z" fill="#514EF3"/>
</svg>
