<svg width="18" height="18" viewBox="0 0 18 18" fill="none" xmlns="http://www.w3.org/2000/svg">
<path d="M8.58329 17.125C3.87496 17.125 0.041626 13.2916 0.041626 8.58329C0.041626 3.87496 3.87496 0.041626 8.58329 0.041626C13.2916 0.041626 17.125 3.87496 17.125 8.58329C17.125 13.2916 13.2916 17.125 8.58329 17.125ZM8.58329 1.29163C4.55829 1.29163 1.29163 4.56663 1.29163 8.58329C1.29163 12.6 4.55829 15.875 8.58329 15.875C12.6083 15.875 15.875 12.6 15.875 8.58329C15.875 4.56663 12.6083 1.29163 8.58329 1.29163Z" fill="#7E92A2"/>
<path d="M17.3333 17.9583C17.175 17.9583 17.0166 17.9 16.8916 17.775L15.225 16.1083C14.9833 15.8666 14.9833 15.4666 15.225 15.225C15.4666 14.9833 15.8666 14.9833 16.1083 15.225L17.775 16.8916C18.0166 17.1333 18.0166 17.5333 17.775 17.775C17.65 17.9 17.4916 17.9583 17.3333 17.9583Z" fill="#7E92A2"/>
</svg>
