<svg width="16" height="18" viewBox="0 0 16 18" fill="none" xmlns="http://www.w3.org/2000/svg">
<path d="M15.9166 8.08329V2.41663C15.9166 1.16663 15.3833 0.666626 14.0583 0.666626H10.6916C9.36658 0.666626 8.83325 1.16663 8.83325 2.41663V8.08329C8.83325 9.33329 9.36658 9.83329 10.6916 9.83329H14.0583C15.3833 9.83329 15.9166 9.33329 15.9166 8.08329Z" fill="white"/>
<path d="M7.16658 9.91663V15.5833C7.16658 16.8333 6.63325 17.3333 5.30825 17.3333H1.94159C0.616585 17.3333 0.083252 16.8333 0.083252 15.5833V9.91663C0.083252 8.66663 0.616585 8.16663 1.94159 8.16663H5.30825C6.63325 8.16663 7.16658 8.66663 7.16658 9.91663Z" fill="white"/>
<path d="M15.9166 15.5833V13.25C15.9166 12 15.3833 11.5 14.0583 11.5H10.6916C9.36658 11.5 8.83325 12 8.83325 13.25V15.5833C8.83325 16.8333 9.36658 17.3333 10.6916 17.3333H14.0583C15.3833 17.3333 15.9166 16.8333 15.9166 15.5833Z" fill="white"/>
<path d="M7.16658 4.74996V2.41663C7.16658 1.16663 6.63325 0.666626 5.30825 0.666626H1.94159C0.616585 0.666626 0.083252 1.16663 0.083252 2.41663V4.74996C0.083252 5.99996 0.616585 6.49996 1.94159 6.49996H5.30825C6.63325 6.49996 7.16658 5.99996 7.16658 4.74996Z" fill="white"/>
</svg>
